<svg width="336" height="159" viewBox="0 0 336 159" fill="none" xmlns="http://www.w3.org/2000/svg">
<path d="M31.44 35H24.192V6.776H15.792C15.6 8.248 15.392 9.848 15.168 11.576C14.976 13.304 14.752 15.064 14.496 16.856C14.272 18.616 14.032 20.296 13.776 21.896C13.52 23.464 13.264 24.856 13.008 26.072C12.592 28.056 12.032 29.752 11.328 31.16C10.656 32.568 9.712 33.64 8.496 34.376C7.312 35.112 5.76 35.48 3.84 35.48C3.2 35.48 2.592 35.432 2.016 35.336C1.44 35.24 0.896 35.112 0.384 34.952V29C0.8 29.128 1.2 29.24 1.584 29.336C2 29.432 2.448 29.48 2.928 29.48C3.568 29.48 4.096 29.272 4.512 28.856C4.928 28.44 5.296 27.736 5.616 26.744C5.936 25.72 6.256 24.312 6.576 22.52C6.736 21.752 6.928 20.664 7.152 19.256C7.376 17.816 7.632 16.136 7.92 14.216C8.24 12.264 8.56 10.152 8.88 7.88C9.2 5.576 9.504 3.192 9.792 0.727998H31.44V35ZM50.3096 8.312C52.7416 8.312 54.8216 8.776 56.5496 9.704C58.3096 10.632 59.6696 11.976 60.6296 13.736C61.5896 15.496 62.0696 17.656 62.0696 20.216V23.672H45.1736C45.2376 25.688 45.8296 27.272 46.9496 28.424C48.1016 29.576 49.6856 30.152 51.7016 30.152C53.3976 30.152 54.9336 29.992 56.3096 29.672C57.6856 29.32 59.1096 28.792 60.5816 28.088V33.608C59.3016 34.248 57.9416 34.712 56.5016 35C55.0936 35.32 53.3816 35.48 51.3656 35.48C48.7416 35.48 46.4216 35 44.4056 34.04C42.3896 33.048 40.8056 31.56 39.6536 29.576C38.5016 27.592 37.9256 25.096 37.9256 22.088C37.9256 19.016 38.4376 16.472 39.4616 14.456C40.5176 12.408 41.9736 10.872 43.8296 9.848C45.6856 8.824 47.8456 8.312 50.3096 8.312ZM50.3576 13.4C48.9816 13.4 47.8296 13.848 46.9016 14.744C46.0056 15.64 45.4776 17.032 45.3176 18.92H55.3496C55.3496 17.864 55.1576 16.92 54.7736 16.088C54.4216 15.256 53.8776 14.6 53.1416 14.12C52.4056 13.64 51.4776 13.4 50.3576 13.4ZM85.965 8.792V14.168H75.021V35H67.869V8.792H85.965ZM107.975 8.792H115.847L105.479 21.368L116.759 35H108.647L97.9429 21.704V35H90.7909V8.792H97.9429V21.512L107.975 8.792ZM143.38 21.848C143.38 24.024 143.076 25.96 142.468 27.656C141.892 29.352 141.044 30.792 139.924 31.976C138.836 33.128 137.508 34.008 135.94 34.616C134.372 35.192 132.596 35.48 130.612 35.48C128.788 35.48 127.092 35.192 125.524 34.616C123.988 34.008 122.66 33.128 121.54 31.976C120.42 30.792 119.54 29.352 118.9 27.656C118.292 25.96 117.988 24.024 117.988 21.848C117.988 18.936 118.5 16.488 119.524 14.504C120.548 12.488 122.02 10.952 123.94 9.896C125.86 8.84 128.132 8.312 130.756 8.312C133.22 8.312 135.396 8.84 137.284 9.896C139.172 10.952 140.66 12.488 141.748 14.504C142.836 16.488 143.38 18.936 143.38 21.848ZM125.284 21.848C125.284 23.576 125.46 25.032 125.812 26.216C126.196 27.368 126.788 28.248 127.588 28.856C128.388 29.432 129.428 29.72 130.708 29.72C131.988 29.72 133.012 29.432 133.78 28.856C134.58 28.248 135.156 27.368 135.508 26.216C135.892 25.032 136.084 23.576 136.084 21.848C136.084 20.12 135.892 18.68 135.508 17.528C135.156 16.376 134.58 15.512 133.78 14.936C132.98 14.36 131.94 14.072 130.66 14.072C128.772 14.072 127.396 14.728 126.532 16.04C125.7 17.32 125.284 19.256 125.284 21.848ZM4.32 91V56.728H25.968V62.728H11.568V69.88H14.448C17.68 69.88 20.32 70.328 22.368 71.224C24.448 72.12 25.984 73.352 26.976 74.92C27.968 76.488 28.464 78.28 28.464 80.296C28.464 82.536 27.968 84.456 26.976 86.056C25.984 87.656 24.448 88.888 22.368 89.752C20.288 90.584 17.6 91 14.304 91H4.32ZM14.016 85.048C16.224 85.048 17.952 84.696 19.2 83.992C20.48 83.288 21.12 82.056 21.12 80.296C21.12 79.08 20.8 78.152 20.16 77.512C19.552 76.872 18.672 76.44 17.52 76.216C16.4 75.96 15.04 75.832 13.44 75.832H11.568V85.048H14.016ZM34.3534 91V64.792H41.5054V74.92H44.9614C47.6494 74.92 49.8574 75.208 51.5854 75.784C53.3134 76.328 54.5934 77.176 55.4254 78.328C56.2894 79.48 56.7214 80.92 56.7214 82.648C56.7214 84.344 56.3214 85.816 55.5214 87.064C54.7534 88.312 53.5214 89.288 51.8254 89.992C50.1614 90.664 47.9534 91 45.2014 91H34.3534ZM44.8174 86.056C46.2254 86.056 47.3614 85.8 48.2254 85.288C49.1214 84.776 49.5694 83.928 49.5694 82.744C49.5694 81.72 49.1534 80.984 48.3214 80.536C47.5214 80.088 46.3214 79.864 44.7214 79.864H41.5054V86.056H44.8174ZM60.5134 91V64.792H67.6654V91H60.5134ZM85.7906 91.48C83.1986 91.48 80.9906 91.016 79.1666 90.088C77.3426 89.128 75.9506 87.656 74.9906 85.672C74.0306 83.688 73.5506 81.144 73.5506 78.04C73.5506 74.84 74.0946 72.232 75.1826 70.216C76.2706 68.2 77.7746 66.712 79.6946 65.752C81.6466 64.792 83.8866 64.312 86.4146 64.312C88.2066 64.312 89.7586 64.488 91.0706 64.84C92.4146 65.192 93.5826 65.608 94.5746 66.088L92.4626 71.608C91.3426 71.16 90.2866 70.792 89.2946 70.504C88.3346 70.216 87.3746 70.072 86.4146 70.072C85.1666 70.072 84.1266 70.376 83.2946 70.984C82.4626 71.56 81.8386 72.44 81.4226 73.624C81.0386 74.776 80.8466 76.232 80.8466 77.992C80.8466 79.72 81.0546 81.16 81.4706 82.312C81.9186 83.432 82.5586 84.28 83.3906 84.856C84.2226 85.4 85.2306 85.672 86.4146 85.672C87.9186 85.672 89.2466 85.48 90.3986 85.096C91.5506 84.68 92.6706 84.12 93.7586 83.416V89.512C92.6706 90.216 91.5186 90.712 90.3026 91C89.1186 91.32 87.6146 91.48 85.7906 91.48ZM121.487 70.168H112.895V91H105.743V70.168H97.1509V64.792H121.487V70.168ZM140.914 64.312C143.858 64.312 146.242 65.464 148.066 67.768C149.89 70.04 150.802 73.4 150.802 77.848C150.802 80.824 150.37 83.336 149.506 85.384C148.642 87.4 147.458 88.92 145.954 89.944C144.45 90.968 142.706 91.48 140.722 91.48C139.474 91.48 138.386 91.32 137.458 91C136.562 90.68 135.794 90.264 135.154 89.752C134.514 89.24 133.954 88.696 133.474 88.12H133.09C133.218 88.728 133.314 89.368 133.378 90.04C133.442 90.68 133.474 91.32 133.474 91.96V102.52H126.322V64.792H132.13L133.138 68.2H133.474C133.954 67.496 134.53 66.856 135.202 66.28C135.874 65.672 136.674 65.192 137.602 64.84C138.562 64.488 139.666 64.312 140.914 64.312ZM138.61 70.024C137.362 70.024 136.37 70.28 135.634 70.792C134.898 71.304 134.354 72.088 134.002 73.144C133.682 74.168 133.506 75.464 133.474 77.032V77.8C133.474 79.496 133.634 80.936 133.954 82.12C134.274 83.272 134.818 84.152 135.586 84.76C136.354 85.368 137.394 85.672 138.706 85.672C139.794 85.672 140.69 85.368 141.394 84.76C142.098 84.152 142.626 83.256 142.978 82.072C143.33 80.888 143.506 79.448 143.506 77.752C143.506 75.192 143.106 73.272 142.306 71.992C141.538 70.68 140.306 70.024 138.61 70.024ZM180.505 77.848C180.505 80.024 180.201 81.96 179.593 83.656C179.017 85.352 178.169 86.792 177.049 87.976C175.961 89.128 174.633 90.008 173.065 90.616C171.497 91.192 169.721 91.48 167.737 91.48C165.913 91.48 164.217 91.192 162.649 90.616C161.113 90.008 159.785 89.128 158.665 87.976C157.545 86.792 156.665 85.352 156.025 83.656C155.417 81.96 155.113 80.024 155.113 77.848C155.113 74.936 155.625 72.488 156.649 70.504C157.673 68.488 159.145 66.952 161.065 65.896C162.985 64.84 165.257 64.312 167.881 64.312C170.345 64.312 172.521 64.84 174.409 65.896C176.297 66.952 177.785 68.488 178.873 70.504C179.961 72.488 180.505 74.936 180.505 77.848ZM162.409 77.848C162.409 79.576 162.585 81.032 162.937 82.216C163.321 83.368 163.913 84.248 164.713 84.856C165.513 85.432 166.553 85.72 167.833 85.72C169.113 85.72 170.137 85.432 170.905 84.856C171.705 84.248 172.281 83.368 172.633 82.216C173.017 81.032 173.209 79.576 173.209 77.848C173.209 76.12 173.017 74.68 172.633 73.528C172.281 72.376 171.705 71.512 170.905 70.936C170.105 70.36 169.065 70.072 167.785 70.072C165.897 70.072 164.521 70.728 163.657 72.04C162.825 73.32 162.409 75.256 162.409 77.848ZM4.32 147V112.728H31.44V147H24.192V118.776H11.568V147H4.32ZM54.1016 120.312C57.0456 120.312 59.4296 121.464 61.2536 123.768C63.0776 126.04 63.9896 129.4 63.9896 133.848C63.9896 136.824 63.5576 139.336 62.6936 141.384C61.8296 143.4 60.6456 144.92 59.1416 145.944C57.6376 146.968 55.8936 147.48 53.9096 147.48C52.6616 147.48 51.5736 147.32 50.6456 147C49.7496 146.68 48.9816 146.264 48.3416 145.752C47.7016 145.24 47.1416 144.696 46.6616 144.12H46.2776C46.4056 144.728 46.5016 145.368 46.5656 146.04C46.6296 146.68 46.6616 147.32 46.6616 147.96V158.52H39.5096V120.792H45.3176L46.3256 124.2H46.6616C47.1416 123.496 47.7176 122.856 48.3896 122.28C49.0616 121.672 49.8616 121.192 50.7896 120.84C51.7496 120.488 52.8536 120.312 54.1016 120.312ZM51.7976 126.024C50.5496 126.024 49.5576 126.28 48.8216 126.792C48.0856 127.304 47.5416 128.088 47.1896 129.144C46.8696 130.168 46.6936 131.464 46.6616 133.032V133.8C46.6616 135.496 46.8216 136.936 47.1416 138.12C47.4616 139.272 48.0056 140.152 48.7736 140.76C49.5416 141.368 50.5816 141.672 51.8936 141.672C52.9816 141.672 53.8776 141.368 54.5816 140.76C55.2856 140.152 55.8136 139.256 56.1656 138.072C56.5176 136.888 56.6936 135.448 56.6936 133.752C56.6936 131.192 56.2936 129.272 55.4936 127.992C54.7256 126.68 53.4936 126.024 51.7976 126.024ZM93.6926 133.848C93.6926 136.024 93.3886 137.96 92.7806 139.656C92.2046 141.352 91.3566 142.792 90.2366 143.976C89.1486 145.128 87.8206 146.008 86.2526 146.616C84.6846 147.192 82.9086 147.48 80.9246 147.48C79.1006 147.48 77.4046 147.192 75.8366 146.616C74.3006 146.008 72.9726 145.128 71.8526 143.976C70.7326 142.792 69.8526 141.352 69.2126 139.656C68.6046 137.96 68.3006 136.024 68.3006 133.848C68.3006 130.936 68.8126 128.488 69.8366 126.504C70.8606 124.488 72.3326 122.952 74.2526 121.896C76.1726 120.84 78.4446 120.312 81.0686 120.312C83.5326 120.312 85.7086 120.84 87.5966 121.896C89.4846 122.952 90.9726 124.488 92.0606 126.504C93.1486 128.488 93.6926 130.936 93.6926 133.848ZM75.5966 133.848C75.5966 135.576 75.7726 137.032 76.1246 138.216C76.5086 139.368 77.1006 140.248 77.9006 140.856C78.7006 141.432 79.7406 141.72 81.0206 141.72C82.3006 141.72 83.3246 141.432 84.0926 140.856C84.8926 140.248 85.4686 139.368 85.8206 138.216C86.2046 137.032 86.3966 135.576 86.3966 133.848C86.3966 132.12 86.2046 130.68 85.8206 129.528C85.4686 128.376 84.8926 127.512 84.0926 126.936C83.2926 126.36 82.2526 126.072 80.9726 126.072C79.0846 126.072 77.7086 126.728 76.8446 128.04C76.0126 129.32 75.5966 131.256 75.5966 133.848ZM123.171 120.792V141.768H127.011V156.408H120.579V147H102.963V156.408H96.5314V141.768H98.7394C99.8914 140.008 100.867 138.008 101.667 135.768C102.467 133.496 103.107 131.08 103.587 128.52C104.067 125.96 104.419 123.384 104.643 120.792H123.171ZM110.643 126.168C110.387 128.088 110.067 129.96 109.683 131.784C109.299 133.576 108.819 135.304 108.243 136.968C107.699 138.632 107.027 140.232 106.227 141.768H116.019V126.168H110.643ZM127.734 120.792H135.558L140.502 135.528C140.662 136.008 140.79 136.488 140.886 136.968C141.014 137.448 141.11 137.944 141.174 138.456C141.27 138.968 141.334 139.512 141.366 140.088H141.51C141.606 139.256 141.734 138.472 141.894 137.736C142.086 136.968 142.294 136.232 142.518 135.528L147.366 120.792H155.046L143.958 150.36C143.286 152.152 142.406 153.656 141.318 154.872C140.262 156.088 139.03 157 137.622 157.608C136.214 158.216 134.678 158.52 133.014 158.52C132.214 158.52 131.51 158.472 130.902 158.376C130.326 158.312 129.814 158.232 129.366 158.136V152.472C129.718 152.536 130.134 152.6 130.614 152.664C131.126 152.728 131.654 152.76 132.198 152.76C133.19 152.76 134.038 152.552 134.742 152.136C135.478 151.72 136.086 151.144 136.566 150.408C137.046 149.704 137.43 148.936 137.718 148.104L138.15 146.808L127.734 120.792ZM175.991 120.792H183.863L173.495 133.368L184.775 147H176.663L165.959 133.704V147H158.807V120.792H165.959V133.512L175.991 120.792ZM210.221 126.168H201.629V147H194.477V126.168H185.885V120.792H210.221V126.168ZM221.969 131.16C221.969 131.704 221.937 132.376 221.873 133.176C221.841 133.976 221.793 134.792 221.729 135.624C221.697 136.456 221.649 137.192 221.585 137.832C221.521 138.472 221.473 138.92 221.441 139.176L233.537 120.792H242.129V147H235.217V136.536C235.217 135.672 235.249 134.728 235.312 133.704C235.377 132.648 235.441 131.672 235.505 130.776C235.601 129.848 235.665 129.144 235.697 128.664L223.648 147H215.057V120.792H221.969V131.16ZM272.835 127.656C272.835 129.064 272.387 130.264 271.491 131.256C270.627 132.248 269.331 132.888 267.603 133.176V133.368C269.427 133.592 270.883 134.216 271.971 135.24C273.091 136.264 273.651 137.576 273.651 139.176C273.651 140.296 273.427 141.336 272.979 142.296C272.563 143.256 271.891 144.088 270.963 144.792C270.035 145.496 268.835 146.04 267.363 146.424C265.923 146.808 264.163 147 262.083 147H249.603V120.792H262.083C264.131 120.792 265.955 121.016 267.555 121.464C269.187 121.88 270.467 122.584 271.395 123.576C272.355 124.568 272.835 125.928 272.835 127.656ZM266.259 138.792C266.259 137.768 265.859 137.032 265.059 136.584C264.259 136.104 263.059 135.864 261.459 135.864H256.755V142.056H261.603C262.947 142.056 264.051 141.816 264.915 141.336C265.811 140.824 266.259 139.976 266.259 138.792ZM265.587 128.232C265.587 127.4 265.267 126.792 264.627 126.408C263.987 126.024 263.043 125.832 261.795 125.832H256.755V131.016H260.979C262.483 131.016 263.619 130.808 264.387 130.392C265.187 129.944 265.587 129.224 265.587 128.232ZM286.943 120.792V130.872H296.927V120.792H304.079V147H296.927V136.2H286.943V147H279.791V120.792H286.943ZM335.38 133.848C335.38 136.024 335.076 137.96 334.468 139.656C333.892 141.352 333.044 142.792 331.924 143.976C330.836 145.128 329.508 146.008 327.94 146.616C326.372 147.192 324.596 147.48 322.612 147.48C320.788 147.48 319.092 147.192 317.524 146.616C315.988 146.008 314.66 145.128 313.54 143.976C312.42 142.792 311.54 141.352 310.9 139.656C310.292 137.96 309.988 136.024 309.988 133.848C309.988 130.936 310.5 128.488 311.524 126.504C312.548 124.488 314.02 122.952 315.94 121.896C317.86 120.84 320.132 120.312 322.756 120.312C325.22 120.312 327.396 120.84 329.284 121.896C331.172 122.952 332.66 124.488 333.748 126.504C334.836 128.488 335.38 130.936 335.38 133.848ZM317.284 133.848C317.284 135.576 317.46 137.032 317.812 138.216C318.196 139.368 318.788 140.248 319.588 140.856C320.388 141.432 321.428 141.72 322.708 141.72C323.988 141.72 325.012 141.432 325.78 140.856C326.58 140.248 327.156 139.368 327.508 138.216C327.892 137.032 328.084 135.576 328.084 133.848C328.084 132.12 327.892 130.68 327.508 129.528C327.156 128.376 326.58 127.512 325.78 126.936C324.98 126.36 323.94 126.072 322.66 126.072C320.772 126.072 319.396 126.728 318.532 128.04C317.7 129.32 317.284 131.256 317.284 133.848Z" fill="black"/>
</svg>
